<?xml version="1.0" encoding="utf-8"?>
<!-- Generator: Adobe Illustrator 16.0.0, SVG Export Plug-In . SVG Version: 6.00 Build 0)  -->
<!DOCTYPE svg PUBLIC "-//W3C//DTD SVG 1.1//EN" "http://www.w3.org/Graphics/SVG/1.1/DTD/svg11.dtd" [
	<!ENTITY ns_flows "http://ns.adobe.com/Flows/1.0/">
	<!ENTITY ns_extend "http://ns.adobe.com/Extensibility/1.0/">
	<!ENTITY ns_ai "http://ns.adobe.com/AdobeIllustrator/10.0/">
	<!ENTITY ns_graphs "http://ns.adobe.com/Graphs/1.0/">
]>
<svg version="1.1" id="Layer_1" xmlns:x="&ns_extend;" xmlns:i="&ns_ai;" xmlns:graph="&ns_graphs;"
	 xmlns="http://www.w3.org/2000/svg" xmlns:xlink="http://www.w3.org/1999/xlink" xmlns:a="http://ns.adobe.com/AdobeSVGViewerExtensions/3.0/"
	 x="0px" y="0px" width="196.319px" height="64.492px" viewBox="0 0 196.319 64.492"
	 style="enable-background:new 0 0 196.319 64.492;" xml:space="preserve">
<style type="text/css">
<![CDATA[
	.st0{fill:#E01B22;}
	.st1{fill:#FFFFFF;}
]]>
</style>
<path class="st1" d="M167.135,16.096c1.711,2.687,2.75,5.678,2.504,9.221h-9.403c-0.062-1.831-0.122-3.968-2.015-4.824
	c-1.604-0.345-2.291,0.309-2.81,1.162c-0.488,1.037-0.368,1.953,0.121,2.931c3.665,6.167,13.079,4.026,13.924,13.069
	c0.495,5.303-0.51,11.358-4.825,14.044c-4.55,2.833-12.028,2.688-16.427-0.551c-4.091-3.357-4.884-8.303-4.396-13.677h10.138
	c0.062,2.319-0.488,5.252,2.076,6.166c1.037,0.185,1.831-0.12,2.441-1.036c0.681-1.354,0.488-3.481-0.548-4.641
	c-4.458-3.908-11.909-4.335-13.498-10.993c-0.975-3.907-1.036-8.854,1.772-11.907c3.481-3.666,8.548-4.52,13.496-3.787
	C162.495,12.066,165.365,13.409,167.135,16.096"/>
<path class="st1" d="M41.482,21.044c1.727,1.098,1.341,4.381,1.416,6.839h9.7c0.068-3.9,0.302-8.667-1.465-11.235
	c-3.812-5.541-10.811-6.84-16.979-5.008c-4.09,1.221-7.937,5.096-7.937,9.405l-0.008,19.487c0,4.886,2.267,9.825,6.909,11.841
	c4.944,1.832,11.418,1.221,15.692-1.588c4.336-3.054,4.098-8.509,3.977-13.393h-9.813c0,1.538,0.091,3.805-0.242,5.383
	c-0.209,0.988-1.735,1.352-2.713,1.352c-0.978-0.062-2.321-0.502-2.384-2.136c0,0-0.007-18.893-0.007-19.245
	C37.628,21.5,39.427,19.8,41.482,21.044"/>
<path class="st1" d="M108.596,16.036c1.71,2.688,2.749,5.679,2.504,9.221h-9.405c-0.062-1.831-0.12-3.968-2.015-4.824
	c-1.603-0.345-2.29,0.309-2.809,1.161c-0.488,1.038-0.366,1.953,0.123,2.931c3.664,6.167,13.078,4.026,13.923,13.069
	c0.495,5.303-0.512,11.358-4.823,14.044c-4.552,2.834-12.031,2.688-16.427-0.551c-4.092-3.356-4.886-8.303-4.398-13.677h10.139
	c0.061,2.319-0.49,5.252,2.075,6.165c1.039,0.186,1.832-0.12,2.442-1.036c0.68-1.354,0.488-3.481-0.548-4.641
	c-4.458-3.908-11.909-4.335-13.497-10.994c-0.976-3.907-1.037-8.854,1.771-11.907c3.481-3.666,8.549-4.52,13.497-3.787
	C103.955,12.007,106.826,13.35,108.596,16.036"/>
<path class="st1" d="M80.871,15.731c1.1,1.525,1.776,3.306,1.771,5.129l0.005,22.534c-0.027,3.998-3.343,8.443-7.148,9.404
	c-5.63,1.421-13.008,1.405-17.04-3.48c-1.342-1.893-2.199-4.043-2.199-6.474V20.739c0-4.054,3.605-8.121,7.636-9.1
	C69.818,10.173,76.903,10.602,80.871,15.731 M69.441,20.852c-1.455-0.009-2.188,1.085-2.188,2.155l-0.021,18.251
	c0.031,1.403,0.844,2.156,2.454,2.114c1.526,0.011,2.31-0.783,2.271-1.976c0,0-0.001-18.281-0.001-18.308
	C71.956,22.205,71.307,20.852,69.441,20.852"/>
<path class="st1" d="M143.388,52.548l-9.57,0.007l-1.466-6.044h-10.565l-1.587,6.044h-9.527l10.076-40.488h12.642L143.388,52.548z
	 M130.154,37.899l-3.115-13.191l-3.054,13.191H130.154z"/>
<path class="st1" d="M167.135,16.036c1.711,2.688,2.75,5.679,2.504,9.221h-9.403c-0.062-1.831-0.122-3.968-2.015-4.824
	c-1.604-0.345-2.291,0.309-2.81,1.161c-0.488,1.038-0.368,1.953,0.121,2.931c3.665,6.167,13.079,4.026,13.924,13.069
	c0.495,5.303-0.51,11.358-4.825,14.044c-4.55,2.834-12.028,2.688-16.427-0.551c-4.091-3.356-4.884-8.303-4.396-13.677h10.138
	c0.062,2.319-0.488,5.252,2.076,6.165c1.037,0.186,1.831-0.12,2.441-1.036c0.681-1.354,0.488-3.481-0.548-4.641
	c-4.458-3.908-11.909-4.335-13.498-10.994c-0.975-3.907-1.036-8.854,1.772-11.907c3.481-3.666,8.548-4.52,13.496-3.787
	C162.495,12.007,165.365,13.35,167.135,16.036"/>
<rect x="-256.641" y="272.576" class="st0" width="75.598" height="196.319"/>
<path class="st1" d="M-258.297,470.549h78.925V270.911h-78.925V470.549z M-256.64,272.576h75.604v196.316h-75.604V272.576z"/>
<path class="st1" d="M-238.462,442.567c1.393-2.19,5.558-1.7,8.675-1.796v-12.304c-4.947-0.087-10.994-0.383-14.251,1.858
	c-7.028,4.834-8.676,13.712-6.353,21.536c1.549,5.188,6.464,10.067,11.929,10.067l24.718,0.01c6.196,0,12.462-2.875,15.018-8.764
	c2.325-6.271,1.55-14.482-2.013-19.904c-3.874-5.5-10.793-5.198-16.989-5.044v12.447c1.951,0,4.827-0.115,6.829,0.308
	c1.254,0.265,1.715,2.201,1.715,3.441c-0.08,1.24-0.638,2.944-2.709,3.023c0,0-23.965,0.009-24.411,0.009
	C-237.884,447.456-240.041,445.173-238.462,442.567"/>
<path class="st1" d="M-244.814,357.439c3.409-2.169,7.203-3.487,11.696-3.177v11.93c-2.322,0.078-5.033,0.153-6.119,2.556
	c-0.438,2.034,0.392,2.905,1.473,3.563c1.316,0.619,2.477,0.465,3.717-0.155c7.823-4.648,5.107-16.589,16.578-17.66
	c6.725-0.628,14.406,0.648,17.813,6.118c3.595,5.773,3.408,15.26-0.699,20.836c-4.258,5.19-10.53,6.197-17.348,5.578v-12.86
	c2.943-0.077,6.662,0.621,7.822-2.632c0.234-1.317-0.154-2.323-1.316-3.098c-1.717-0.862-4.415-0.619-5.886,0.695
	c-4.957,5.655-5.499,15.105-13.944,17.12c-4.956,1.237-11.231,1.315-15.103-2.247c-4.649-4.416-5.732-10.844-4.803-17.12
	C-249.925,363.326-248.222,359.684-244.814,357.439"/>
<path class="st1" d="M-244.814,283.187c3.409-2.169,7.203-3.487,11.696-3.176v11.928c-2.322,0.079-5.033,0.154-6.119,2.556
	c-0.438,2.034,0.392,2.906,1.473,3.563c1.316,0.62,2.477,0.467,3.717-0.154c7.823-4.648,5.107-16.589,16.578-17.66
	c6.725-0.629,14.406,0.646,17.813,6.119c3.595,5.772,3.408,15.259-0.699,20.836c-4.258,5.189-10.53,6.196-17.348,5.577v-12.859
	c2.943-0.078,6.662,0.619,7.822-2.634c0.234-1.316-0.154-2.322-1.316-3.097c-1.717-0.863-4.415-0.619-5.886,0.695
	c-4.957,5.654-5.499,15.105-13.944,17.12c-4.956,1.237-11.231,1.314-15.103-2.247c-4.649-4.416-5.732-10.843-4.803-17.12
	C-249.925,289.074-248.222,285.433-244.814,283.187"/>
<path class="st1" d="M-245.201,392.606c1.934-1.396,4.194-2.253,6.506-2.246l28.581-0.007c5.071,0.035,10.71,4.24,11.929,9.067
	c1.803,7.142,1.783,16.5-4.414,21.613c-2.402,1.702-5.13,2.789-8.211,2.789h-28.04c-5.141,0-10.301-4.572-11.542-9.686
	C-252.25,406.625-251.708,397.639-245.201,392.606 M-238.706,407.103c-0.011,1.846,1.377,2.775,2.734,2.775l23.149,0.026
	c1.78-0.039,2.734-1.071,2.683-3.112c0.012-1.936-0.995-2.93-2.507-2.88c0,0-23.188,0.002-23.222,0.002
	C-236.99,403.915-238.706,404.737-238.706,407.103"/>
<path class="st1" d="M-198.501,313.309l0.008,12.139l-7.667,1.858v13.401l7.667,2.014v12.084l-51.355-12.78V325.99
	 M-217.083,330.095l-16.731,3.951l16.731,3.873V330.095z"/>
<path class="st1" d="M-187.559,442.149l2.037,0.998v1.173l-8.472-4.179l8.472-4.178v1.172l-2.037,0.997 M-191.774,440.141
	l3.289,1.556v-3.11L-191.774,440.141z"/>
<path class="st1" d="M-185.521,423.331v1.324l-3.438,2.578v0.451h3.438v1.092h-8.127v-1.322c0-0.779,0.011-1.616,0.378-2.311
	c0.398-0.732,1.164-1.149,1.941-1.149c1.162,0,2.131,0.836,2.273,2.102 M-189.801,427.684v-0.348c0-1.113-0.194-2.321-1.487-2.321
	c-1.273,0-1.456,1.3-1.456,2.379v0.29H-189.801z"/>
<polyline class="st1" points="-193.649,421.259 -193.649,416.557 -192.723,416.557 -192.723,420.167 -190.449,420.167 
	-190.449,416.662 -189.521,416.662 -189.521,420.167 -186.449,420.167 -186.449,416.557 -185.521,416.557 -185.521,421.259 "/>
<polyline class="st1" points="-187.636,411.107 -193.649,408.507 -193.649,407.309 -185.094,411.107 -193.649,414.914 
	-193.649,413.718 "/>
<rect x="-193.649" y="404.298" class="st1" width="8.127" height="1.09"/>
<path class="st1" d="M-192.106,397.561c-0.506,0.325-0.766,0.743-0.766,1.405c0,0.695,0.442,1.459,1.154,1.459
	c0.635,0,0.971-0.672,1.163-1.217l0.227-0.627c0.453-1.243,1.087-2.171,2.446-2.171c1.477,0,2.534,1.231,2.534,2.798
	c0,1.416-0.97,2.521-2.275,2.705l-0.216-1.102c0.894,0.01,1.543-0.756,1.543-1.697c0-0.939-0.735-1.612-1.586-1.612
	c-0.873,0-1.25,0.755-1.54,1.51l-0.238,0.604c-0.399,0.998-0.926,1.904-2.058,1.904c-1.317,0-2.102-1.256-2.102-2.577
	c0-0.977,0.441-1.777,1.227-2.253"/>
<polyline class="st1" points="-185.521,391.648 -185.521,392.738 -192.723,392.738 -192.723,394.816 -193.649,394.816 
	-193.649,389.57 -192.723,389.57 -192.723,391.648 "/>
<path class="st1" d="M-187.559,387.182l2.037,0.999v1.175l-8.472-4.181l8.472-4.18v1.173l-2.037,0.999 M-191.774,385.175
	l3.289,1.556v-3.111L-191.774,385.175z"/>
<rect x="-193.649" y="373.557" class="st1" width="8.127" height="1.09"/>
<polyline class="st1" points="-194.038,371.211 -187.645,364.644 -193.648,364.644 -193.648,363.552 -185.188,363.552 
	-191.58,370.12 -185.521,370.12 -185.521,371.211 "/>
<polyline class="st1" points="-185.521,358.954 -185.521,360.046 -192.723,360.046 -192.723,362.123 -193.649,362.123 
	-193.649,356.877 -192.723,356.877 -192.723,358.954 "/>
<polyline class="st1" points="-193.649,355.489 -193.649,350.787 -192.723,350.787 -192.723,354.396 -190.449,354.396 
	-190.449,350.893 -189.521,350.893 -189.521,354.396 -186.449,354.396 -186.449,350.787 -185.521,350.787 -185.521,355.489 "/>
<path class="st1" d="M-185.521,343.363v1.324l-3.438,2.576v0.452h3.438v1.092h-8.127v-1.322c0-0.779,0.011-1.615,0.378-2.312
	c0.398-0.729,1.164-1.148,1.941-1.148c1.162,0,2.131,0.837,2.273,2.1 M-189.801,347.715v-0.348c0-1.115-0.194-2.322-1.487-2.322
	c-1.273,0-1.456,1.298-1.456,2.379v0.291H-189.801z"/>
<polyline class="st1" points="-194.038,341.974 -187.645,335.406 -193.648,335.406 -193.648,334.316 -185.188,334.316 
	-191.58,340.883 -185.521,340.883 -185.521,341.974 "/>
<path class="st1" d="M-187.559,330.881l2.037,0.997v1.174l-8.472-4.178l8.472-4.179v1.171l-2.037,1 M-191.774,328.875l3.289,1.555
	v-3.109L-191.774,328.875z"/>
<path class="st1" d="M-192.096,317.009c-0.517,0.627-0.798,1.486-0.798,2.309c0,1.964,1.519,3.46,3.319,3.46
	c1.778,0,3.299-1.485,3.299-3.436c0-0.858-0.302-1.683-0.84-2.333h1.196c0.365,0.673,0.571,1.532,0.571,2.299
	c0,2.494-1.844,4.561-4.195,4.561c-2.402,0-4.278-2.079-4.278-4.654c0-0.766,0.172-1.544,0.551-2.205"/>
<rect x="-193.649" y="314.071" class="st1" width="8.127" height="1.092"/>
<path class="st1" d="M-189.586,303.298c2.416,0,4.238,2.057,4.238,4.583c0,2.531-1.822,4.587-4.238,4.587
	c-2.326,0-4.235-2.079-4.235-4.587C-193.822,305.376-191.913,303.298-189.586,303.298 M-189.586,304.389
	c-1.788,0-3.286,1.44-3.286,3.492c0,2.057,1.498,3.493,3.286,3.493c1.856,0,3.29-1.6,3.29-3.493
	C-186.296,305.991-187.73,304.389-189.586,304.389"/>
<polyline class="st1" points="-194.038,301.762 -187.645,295.193 -193.648,295.193 -193.648,294.1 -185.188,294.1 -191.58,300.671 
	-185.521,300.671 -185.521,301.762 "/>
<path class="st1" d="M-187.559,290.721l2.037,0.997v1.172l-8.472-4.178l8.472-4.18v1.174l-2.037,0.998 M-191.774,288.712
	l3.289,1.558v-3.113L-191.774,288.712z"/>
<polyline class="st1" points="-186.448,282.128 -186.448,279.469 -185.521,279.469 -185.521,283.219 -193.648,283.219 
	-193.648,282.128 "/>
<path class="st1" d="M-193.569,461.168h4.796c1.328,0,2.555-0.43,2.555-2.112s-1.227-2.111-2.555-2.111h-4.796v-1.093h5.142
	c1.789,0,3.158,1.197,3.158,3.204c0,2.009-1.369,3.203-3.158,3.203h-5.142"/>
<polyline class="st1" points="-193.957,453.576 -187.566,447.007 -193.57,447.007 -193.57,445.916 -185.106,445.916 -191.5,452.485 
	-185.44,452.485 -185.44,453.576 "/>
<path class="st1" d="M-244.814,283.187c3.409-2.169,7.203-3.487,11.696-3.176v11.928c-2.322,0.079-5.033,0.154-6.119,2.556
	c-0.438,2.034,0.392,2.906,1.473,3.563c1.316,0.62,2.477,0.467,3.717-0.154c7.823-4.648,5.107-16.589,16.578-17.66
	c6.725-0.629,14.406,0.646,17.813,6.119c3.595,5.772,3.408,15.259-0.699,20.836c-4.258,5.189-10.53,6.196-17.348,5.577v-12.859
	c2.943-0.078,6.662,0.619,7.822-2.634c0.234-1.316-0.154-2.322-1.316-3.097c-1.717-0.863-4.415-0.619-5.886,0.695
	c-4.957,5.654-5.499,15.105-13.944,17.12c-4.956,1.237-11.231,1.314-15.103-2.247c-4.649-4.416-5.732-10.843-4.803-17.12
	C-249.925,289.074-248.222,285.433-244.814,283.187"/>
<path class="st1" d="M-253.17,465.708h-0.663v-0.631c0-0.088,0.014-0.159,0.038-0.21c0.052-0.101,0.145-0.149,0.284-0.149
	c0.129,0,0.218,0.035,0.268,0.106c0.049,0.068,0.073,0.165,0.073,0.287 M-252.108,465.974v-0.267h-0.839v-0.587
	c0-0.106,0.013-0.183,0.037-0.232c0.043-0.086,0.128-0.133,0.256-0.138l0.326-0.022c0.077-0.003,0.128-0.006,0.154-0.011
	c0.026-0.005,0.049-0.011,0.066-0.019v-0.33h-0.044c-0.018,0.041-0.059,0.069-0.121,0.086c-0.036,0.008-0.092,0.015-0.168,0.017
	l-0.26,0.013c-0.113,0.004-0.196,0.025-0.246,0.064c-0.051,0.038-0.092,0.097-0.124,0.174c-0.045-0.089-0.104-0.155-0.179-0.205
	c-0.074-0.048-0.171-0.072-0.289-0.072c-0.225,0-0.38,0.091-0.463,0.272c-0.044,0.095-0.066,0.216-0.066,0.364v0.893H-252.108z"/>
<path class="st1" d="M-252.958,467.329c1.161,0,2.106-0.945,2.106-2.106s-0.945-2.105-2.106-2.105c-1.162,0-2.106,0.944-2.106,2.105
	S-254.12,467.329-252.958,467.329 M-252.958,467.052c-1.009,0-1.83-0.82-1.83-1.83s0.821-1.831,1.83-1.831
	c1.009,0,1.83,0.821,1.83,1.831S-251.949,467.052-252.958,467.052"/>
</svg>
